<?xml version="1.0" encoding="UTF-8" standalone="no"?>
<svg
   version="1.1"
   id="Layer_1"
   x="0px"
   y="0px"
   width="848"
   viewBox="0 0 848 900"
   enable-background="new 0 0 848 1024"
   xml:space="preserve"
   sodipodi:docname="maxwell.svg"
   height="900"
   inkscape:version="1.4.2 (ebf0e940, 2025-05-08)"
   xmlns:inkscape="http://www.inkscape.org/namespaces/inkscape"
   xmlns:sodipodi="http://sodipodi.sourceforge.net/DTD/sodipodi-0.dtd"
   xmlns="http://www.w3.org/2000/svg"
   xmlns:svg="http://www.w3.org/2000/svg"><defs
   id="defs15" /><sodipodi:namedview
   id="namedview15"
   pagecolor="#ffffff"
   bordercolor="#000000"
   borderopacity="0.25"
   inkscape:showpageshadow="2"
   inkscape:pageopacity="0.0"
   inkscape:pagecheckerboard="true"
   inkscape:deskcolor="#d1d1d1"
   inkscape:zoom="0.98113208"
   inkscape:cx="424.50962"
   inkscape:cy="512.16346"
   inkscape:window-width="1984"
   inkscape:window-height="1186"
   inkscape:window-x="0"
   inkscape:window-y="25"
   inkscape:window-maximized="0"
   inkscape:current-layer="Layer_1" />
<path
   fill="#FDFEFE"
   opacity="1"
   stroke="none"
   d="m 425.4375,529.4 c -4.57292,0 -9.13021,0 -13.6875,0 0,-10.79998 0,-21.60001 0,-32.4 8.83333,0 17.66666,0 26.5,0 0,10.79999 0,21.60002 0,32.4 -4.26563,0 -8.53125,0 -12.8125,0 m 6.70933,-18.8203 c 0.60142,-0.35157 1.20227,-0.70418 1.80442,-1.05449 0.60066,-0.34944 1.20416,-0.69388 1.80348,-1.04566 0.41638,-0.24438 0.78372,-0.54597 1.07213,-0.94368 0.2749,-0.37906 0.43088,-0.79791 0.53944,-1.25564 0.13473,-0.56801 0.0797,-1.11342 -0.0751,-1.65374 -0.10325,-0.36053 -0.29682,-0.68234 -0.53027,-0.98099 -0.58991,-0.75471 -1.37044,-1.15099 -2.29822,-1.25343 -0.69308,-0.0764 -1.33121,0.14296 -1.92606,0.48085 -0.82003,0.46575 -1.62897,0.95159 -2.44223,1.42961 -0.53024,0.31164 -1.05793,0.62778 -1.58996,0.93625 -0.63097,0.36584 -1.26684,0.72301 -1.89783,1.08882 -0.5258,0.30481 -1.04656,0.61853 -1.57145,0.92493 -0.83669,0.48846 -1.67631,0.97177 -2.51223,1.46154 -1.18823,0.69619 -2.37276,1.39887 -3.56167,2.09388 -0.90432,0.52862 -1.8137,1.04836 -2.71951,1.57442 -0.63654,0.36966 -1.2685,0.74743 -1.9069,1.11375 -0.53193,0.30527 -1.04399,0.62817 -1.38895,1.16392 -0.5232,0.81252 -0.6911,1.68618 -0.47301,2.63392 0.12036,0.523 0.35404,0.98503 0.70892,1.38444 0.52908,0.59548 1.18699,0.93838 1.96947,1.05106 0.35367,0.0511 0.70265,0.0694 1.0478,-0.038 0.2639,-0.0824 0.54412,-0.13685 0.78423,-0.26624 0.6134,-0.33054 1.20782,-0.69711 1.81098,-1.04721 0.75765,-0.43978 1.51772,-0.87525 2.27441,-1.31667 0.85077,-0.49632 1.69886,-0.99739 2.5483,-1.49606 0.56897,-0.33402 1.1373,-0.66919 1.70766,-1.00075 0.68725,-0.39952 1.37788,-0.79312 2.06419,-1.19427 0.59579,-0.34829 1.18608,-0.7062 1.78156,-1.05502 0.69194,-0.40532 1.38716,-0.80492 2.08042,-1.20792 0.2929,-0.17025 0.58444,-0.34296 0.89594,-0.52757 m -0.63453,4.09885 c 0.13343,-0.0747 0.26617,-0.15089 0.40043,-0.22415 0.35925,-0.19594 0.71721,-0.39453 1.07952,-0.58452 0.23185,-0.12161 0.37622,-0.0563 0.39532,0.20611 0.0275,0.37741 0.0233,0.75763 0.0197,1.13652 -0.001,0.0943 -0.0385,0.1944 -0.0811,0.28081 -0.14124,0.28655 -0.40803,0.43393 -0.66804,0.58181 -0.87564,0.49811 -1.75641,0.98698 -2.63077,1.48734 -0.93036,0.53245 -1.85523,1.07467 -2.7833,1.61122 -0.57369,0.33165 -1.1496,0.65937 -1.72321,0.99122 -0.90614,0.52417 -1.81328,1.0467 -2.71488,1.57882 -0.17489,0.10323 -0.3505,0.22559 -0.48285,0.37743 -0.19854,0.22786 -0.14245,0.51051 -0.0729,0.77793 0.0821,0.31579 0.41469,0.65127 0.80987,0.64534 0.27003,-0.004 0.50026,-0.11392 0.72727,-0.23585 0.33021,-0.17733 0.65372,-0.36734 0.98171,-0.54902 0.74424,-0.41216 1.48944,-0.82255 2.23431,-1.23355 0.68551,-0.37825 1.37068,-0.75714 2.05683,-1.13417 0.49877,-0.27409 1.0006,-0.54251 1.49806,-0.81899 0.8186,-0.45496 1.63517,-0.91374 2.45183,-1.3723 0.62424,-0.35049 1.27024,-0.66288 1.84238,-1.10379 0.72774,-0.56081 1.1975,-1.27611 1.23288,-2.21807 0.0328,-0.87411 0.0186,-1.75004 0.0237,-2.62518 0.002,-0.43767 0.0133,-0.87578 -0.002,-1.31289 -0.008,-0.23648 -0.0211,-0.51039 -0.3186,-0.57494 -0.11514,-0.0251 -0.26566,0.0174 -0.37418,0.0768 -0.84484,0.46532 -1.6835,0.94214 -2.52382,1.41585 -1.0519,0.593 -2.10357,1.1864 -3.15531,1.77966 -0.82114,0.46319 -1.64189,0.92707 -2.46347,1.38946 -0.85591,0.4817 -1.71084,0.96522 -2.57018,1.44058 -0.22237,0.12301 -0.36576,0.28795 -0.402,0.54562 -0.0511,0.36316 0.0367,0.6859 0.33601,0.89735 0.26723,0.18882 0.56992,0.2132 0.8752,0.0483 0.47345,-0.25577 0.95331,-0.49934 1.42765,-0.75347 0.46988,-0.25168 0.93668,-0.5093 1.40409,-0.76569 0.50594,-0.27754 1.01162,-0.55554 1.51634,-0.83535 0.54573,-0.30252 1.09023,-0.60735 1.65365,-0.9264 m -6.78695,-10.59303 c -0.26913,-0.0294 -0.49539,0.0988 -0.71898,0.21598 -0.43042,0.2254 -0.85259,0.46695 -1.27926,0.69979 -0.58802,0.32092 -1.1786,0.63703 -1.76522,0.96054 -0.63623,0.35085 -1.26918,0.70781 -1.90354,1.06217 -0.72126,0.40285 -1.44362,0.80377 -2.16323,1.20964 -0.28429,0.16037 -0.48322,0.0566 -0.48909,-0.27111 -0.006,-0.33733 -0.006,-0.67484 -0.002,-1.01219 0.002,-0.18245 0.0483,-0.35634 0.19785,-0.47325 0.22011,-0.17212 0.43578,-0.35591 0.67573,-0.49518 0.80947,-0.46984 1.62991,-0.92027 2.44402,-1.38197 0.54838,-0.31101 1.09444,-0.62631 1.63918,-0.94382 0.5704,-0.33244 1.13596,-0.67345 1.70734,-1.00416 0.61078,-0.3535 1.2268,-0.69768 1.83879,-1.04903 0.4803,-0.27575 0.95812,-0.55597 1.43671,-0.83478 0.31708,-0.18473 0.64818,-0.34948 0.94636,-0.56155 0.31919,-0.22702 0.36286,-0.55847 0.28055,-0.93925 -0.10939,-0.50608 -0.70173,-0.76695 -1.0731,-0.62935 -0.2996,0.11098 -0.59378,0.2442 -0.8757,0.39557 -0.8611,0.46229 -1.71544,0.93755 -2.57183,1.40884 -0.97682,0.53758 -1.9541,1.07434 -2.92918,1.61514 -0.95151,0.52772 -1.90431,1.05325 -2.8494,1.5926 -0.7617,0.43468 -1.55291,0.81875 -2.25911,1.35016 -0.82409,0.62015 -1.29968,1.41954 -1.29617,2.48273 0.004,1.23365 -10e-4,2.46734 2.5e-4,3.70103 6e-5,0.0833 0.006,0.16887 0.0257,0.24932 0.0782,0.32097 0.33069,0.43338 0.61566,0.27337 0.81155,-0.45568 1.62189,-0.91355 2.43225,-1.37137 0.9647,-0.54502 1.92898,-1.09083 2.89333,-1.63648 0.40061,-0.22667 0.80048,-0.45469 1.20146,-0.68063 0.53118,-0.29937 1.06311,-0.59733 1.59472,-0.89586 0.28171,-0.1582 0.56306,-0.31706 0.84523,-0.47437 0.57625,-0.3213 1.1543,-0.63938 1.72833,-0.96469 0.1143,-0.0648 0.23524,-0.13854 0.31582,-0.23887 0.16031,-0.19959 0.17057,-0.44614 0.1238,-0.68865 -0.0786,-0.40744 -0.35276,-0.60453 -0.76701,-0.67032 m -11.75117,23.30535 c 1.2e-4,0.14753 -2.5e-4,0.29509 5e-4,0.44265 0.002,0.35827 -5e-4,0.71666 0.008,1.07474 0.002,0.0987 0.0315,0.20193 0.16405,0.20862 0.14414,0.007 0.16252,-0.10532 0.18782,-0.20651 0.01,-0.0397 0.004,-0.0841 0.004,-0.12603 2.5e-4,-0.43737 -5e-4,-0.87475 10e-4,-1.31211 2.5e-4,-0.056 0.0146,-0.11176 0.0224,-0.16766 0.073,0.0437 0.10771,0.0917 0.13835,0.14185 0.24599,0.40352 0.48791,0.80961 0.73798,1.21049 0.13777,0.22084 0.28573,0.21668 0.41927,-0.008 0.17287,-0.29075 0.3373,-0.5866 0.50825,-0.87852 0.0923,-0.1577 0.1907,-0.31174 0.28634,-0.46743 0.0171,0.005 0.0342,0.0109 0.0513,0.0163 0.004,0.0597 0.0104,0.11938 0.0106,0.17907 0.002,0.45317 0.004,0.90634 0.005,1.35951 5e-4,0.11259 0.0307,0.21268 0.14596,0.25156 0.12655,0.0425 0.2229,-0.0661 0.22385,-0.25814 0.004,-0.76934 0.008,-1.53868 0.001,-2.30795 -0.001,-0.0717 -0.0603,-0.17061 -0.12166,-0.20771 -0.0887,-0.0538 -0.17369,-0.003 -0.23057,0.0941 -0.22562,0.38282 -0.45617,0.7627 -0.68389,1.14424 -0.13093,0.21938 -0.25992,0.43994 -0.40217,0.68097 -0.0554,-0.0629 -0.0953,-0.0958 -0.11985,-0.13789 -0.32123,-0.54992 -0.64023,-1.10115 -0.95995,-1.65196 -0.0533,-0.0919 -0.12895,-0.1601 -0.23763,-0.13261 -0.11201,0.0284 -0.1622,0.11739 -0.16136,0.23642 0.002,0.26335 10e-4,0.52675 0.002,0.82173 m 13.33227,0.60562 c -0.14788,-0.28377 -0.28742,-0.57242 -0.44639,-0.84966 -0.11839,-0.20648 -0.28091,-0.2009 -0.3944,0.01 -0.14492,0.26891 -0.27251,0.54732 -0.41176,0.81944 -0.0677,0.13228 -0.14493,0.25962 -0.23079,0.41221 -0.0322,-0.0561 -0.0493,-0.0762 -0.0566,-0.0997 -0.10654,-0.34107 -0.21347,-0.68207 -0.31676,-1.02414 -0.0769,-0.25464 -0.14647,-0.5115 -0.22371,-0.76602 -0.0348,-0.11462 -0.11872,-0.18071 -0.23647,-0.15099 -0.11792,0.0298 -0.16054,0.1281 -0.13445,0.24512 0.0268,0.12054 0.0635,0.23903 0.10022,0.35707 0.10643,0.34231 0.21749,0.68321 0.32203,1.02608 0.0983,0.32264 0.18445,0.64926 0.29054,0.96916 0.0233,0.0701 0.0984,0.1437 0.16728,0.1722 0.0903,0.0373 0.15979,-0.0265 0.20722,-0.1158 0.20061,-0.37809 0.4047,-0.75431 0.61045,-1.12956 0.0374,-0.0683 0.0886,-0.12889 0.13345,-0.19305 0.0437,0.0647 0.0944,0.12574 0.12982,0.19481 0.18121,0.35361 0.35686,0.71014 0.53814,1.06371 0.051,0.0995 0.12474,0.2131 0.24543,0.17116 0.0737,-0.0257 0.13962,-0.12929 0.17154,-0.21264 0.0798,-0.20826 0.1409,-0.4241 0.20457,-0.63839 0.16435,-0.55309 0.3237,-1.10777 0.49046,-1.66012 0.0401,-0.13289 -0.006,-0.21519 -0.11809,-0.26803 -0.0861,-0.0405 -0.21532,0.0357 -0.25097,0.15414 -0.12672,0.42088 -0.2472,0.84365 -0.37172,1.2652 -0.0598,0.20237 -0.1233,0.40358 -0.18513,0.6053 -0.0154,0.002 -0.0308,0.005 -0.0462,0.007 -0.0606,-0.11375 -0.12125,-0.22752 -0.1877,-0.36466 m 3.83385,-1.67687 c -0.41657,-2.4e-4 -0.83315,1.3e-4 -1.24971,-0.002 -0.1247,-5.2e-4 -0.18807,0.0426 -0.18705,0.18295 0.006,0.80133 0.006,1.60275 0.008,2.4041 5e-4,0.18644 0.0359,0.22711 0.21199,0.22764 0.49987,0.002 0.99976,5e-4 1.49963,-0.002 0.0562,-5.2e-4 0.12459,0.002 0.1653,-0.0278 0.0511,-0.0373 0.10858,-0.10616 0.10945,-0.16222 10e-4,-0.0544 -0.0567,-0.12378 -0.10721,-0.1601 -0.0408,-0.0294 -0.10919,-0.0255 -0.16538,-0.0257 -0.39574,-10e-4 -0.79151,-0.002 -1.18721,0.003 -0.11283,0.001 -0.16216,-0.0387 -0.15901,-0.15599 0.005,-0.18439 0.005,-0.36914 -7e-5,-0.55349 -0.003,-0.10439 0.0369,-0.13524 0.13764,-0.1357 0.25982,-0.001 0.5202,-0.006 0.77896,-0.0274 0.06,-0.005 0.16309,-0.0824 0.16077,-0.12146 -0.005,-0.0709 -0.0606,-0.1521 -0.11814,-0.20187 -0.0398,-0.0344 -0.11799,-0.0311 -0.17905,-0.0312 -0.21864,-5e-4 -0.43732,0.003 -0.6559,0.009 -0.0842,0.002 -0.12332,-0.0252 -0.12093,-0.11741 0.005,-0.19496 0.005,-0.39016 10e-4,-0.58514 -0.002,-0.0954 0.0338,-0.1308 0.12866,-0.12841 0.21858,0.005 0.43736,0.004 0.65605,0.004 0.20308,1.2e-4 0.40631,0.004 0.60918,-0.003 0.12264,-0.004 0.23666,-0.0585 0.24141,-0.19475 0.005,-0.14372 -0.11237,-0.18626 -0.2349,-0.19263 -0.10388,-0.005 -0.20822,-0.002 -0.34343,-0.002 m -12.50327,1.35963 c -0.17507,0.3777 -0.35457,0.75341 -0.5223,1.1344 -0.0457,0.10375 -0.0399,0.21446 0.0809,0.28776 0.12852,0.0778 0.19851,-0.005 0.24792,-0.0955 0.10827,-0.19944 0.20994,-0.40342 0.29928,-0.61213 0.0414,-0.0967 0.0971,-0.11911 0.19074,-0.11778 0.28116,0.004 0.56269,0.008 0.84353,-0.002 0.13695,-0.005 0.20443,0.0469 0.2531,0.172 0.0714,0.18334 0.15694,0.36158 0.24491,0.5377 0.0526,0.10529 0.14613,0.18137 0.2622,0.12349 0.0994,-0.0498 0.12132,-0.14651 0.0686,-0.26363 -0.21611,-0.47987 -0.42338,-0.9638 -0.63608,-1.44527 -0.14293,-0.32354 -0.28687,-0.64666 -0.43581,-0.96739 -0.0576,-0.12416 -0.1875,-0.14946 -0.27763,-0.0562 -0.0523,0.0544 -0.0973,0.12099 -0.12868,0.18997 -0.16474,0.36233 -0.32409,0.72716 -0.49066,1.11508 m 5.89538,-8.76748 c 0.18562,-0.27829 0.24119,-0.58282 0.10807,-0.89032 -0.13907,-0.32121 -0.39793,-0.50576 -0.75133,-0.53387 -0.35913,-0.0287 -0.69354,0.17668 -0.8388,0.49314 -0.15069,0.32827 -0.11389,0.66215 0.11466,0.9509 0.32024,0.40462 0.93345,0.48177 1.3674,-0.02 m 3.90365,-15.88428 c -0.45123,-0.30184 -1.02739,-0.10163 -1.23599,0.31153 -0.29431,0.58289 0.0715,1.31606 0.79806,1.30618 0.31989,-0.005 0.68454,-0.21812 0.82404,-0.66683 0.10078,-0.32418 -0.062,-0.73379 -0.38611,-0.95088 m -6.60636,23.39629 c 0.005,0.0704 -0.0147,0.15581 0.0176,0.20895 0.17216,0.28304 0.35152,0.56211 0.54089,0.83359 0.0685,0.0982 0.0724,0.16687 0.006,0.26479 -0.24553,0.36219 -0.4821,0.73059 -0.72525,1.09444 -0.0735,0.11 -0.0436,0.20128 0.0478,0.26805 0.089,0.065 0.17338,0.0365 0.23821,-0.0564 0.22761,-0.32573 0.46088,-0.64752 0.68376,-0.9765 0.0654,-0.0966 0.0944,-0.10073 0.15813,-5.1e-4 0.17122,0.26903 0.34918,0.53377 0.52992,0.79637 0.0572,0.083 0.12166,0.16848 0.20197,0.22478 0.0438,0.0307 0.15128,0.0286 0.18778,-0.005 0.0476,-0.0441 0.0723,-0.13511 0.0707,-0.20513 -10e-4,-0.0526 -0.0582,-0.10446 -0.0924,-0.15529 -0.20481,-0.30451 -0.40072,-0.61584 -0.61924,-0.90995 -0.11682,-0.1572 -0.0879,-0.27699 0.009,-0.41922 0.17302,-0.25364 0.3382,-0.5128 0.50504,-0.77072 0.0709,-0.10964 0.0414,-0.20138 -0.0636,-0.26675 -0.116,-0.0721 -0.19396,-0.005 -0.25931,0.0862 -0.075,0.10484 -0.14791,0.21118 -0.22149,0.31704 -0.10972,0.15785 -0.21922,0.31583 -0.34136,0.49181 -0.0833,-0.11675 -0.14792,-0.20231 -0.20725,-0.29143 -0.11188,-0.16805 -0.21461,-0.34272 -0.33271,-0.50605 -0.10155,-0.14049 -0.19991,-0.1472 -0.33442,-0.0226 m 14.22977,1.75741 c 0.003,0.23166 0.005,0.4633 0.01,0.69495 0.004,0.17654 0.0793,0.25057 0.25742,0.25263 0.19764,0.002 0.3953,0.003 0.59295,0.003 0.30169,-2e-5 0.6034,5.1e-4 0.90504,-0.003 0.15085,-0.002 0.26021,-0.1036 0.24106,-0.22109 -0.0232,-0.14274 -0.13483,-0.15494 -0.24787,-0.15494 -0.39531,1e-5 -0.79071,-0.003 -1.18587,0.005 -0.1437,0.003 -0.19092,-0.0487 -0.18948,-0.19211 0.005,-0.52132 0.001,-1.04275 2.5e-4,-1.56413 -2.5e-4,-0.16324 0.0102,-0.32786 -0.008,-0.48912 -0.007,-0.0637 -0.0715,-0.15884 -0.12356,-0.16922 -0.0615,-0.0122 -0.1526,0.0366 -0.20299,0.0875 -0.0394,0.0397 -0.0498,0.12268 -0.0502,0.18654 -0.003,0.51082 -3e-5,1.0217 0.001,1.56399 m -2.76487,-0.79037 c 2.5e-4,-0.27934 0.001,-0.5587 1e-5,-0.83805 -0.001,-0.14101 -0.086,-0.24258 -0.19949,-0.22864 -0.12675,0.0155 -0.18552,0.10688 -0.18811,0.22955 -0.002,0.11561 0.0106,0.23145 0.0109,0.34723 0.002,0.65883 0.002,1.3177 0.002,1.97654 2.5e-4,0.1889 0.0607,0.25219 0.24819,0.25447 0.2186,0.003 0.43725,0.003 0.65588,0.003 0.2759,-5.3e-4 0.55182,-5.3e-4 0.82769,-0.005 0.12124,-0.002 0.23053,-0.0249 0.24178,-0.18199 0.009,-0.12939 -0.0606,-0.19151 -0.2343,-0.19242 -0.39042,-0.002 -0.78095,-0.006 -1.17122,0.002 -0.14692,0.003 -0.20358,-0.0406 -0.19956,-0.19642 0.01,-0.37927 0.005,-0.75892 0.006,-1.17006 z"
   id="path1"
   style="opacity:0;mix-blend-mode:normal;fill:#fdfefe;fill-opacity:0;stroke-width:0.0314447" />
<path
   fill="#044569"
   opacity="1"
   stroke="none"
   d="m 653.38928,430.39191 c -9.65851,5.62884 -18.98779,11.08654 -28.36078,16.46807 -22.18432,12.73713 -44.43127,25.3657 -66.5733,38.17563 -19.05566,11.02433 -37.94476,22.33658 -57.01028,33.34366 -21.96177,12.6792 -44.06192,25.11853 -66.05402,37.74549 -18.2515,10.4793 -36.43808,21.07177 -54.64508,31.62848 -27.18207,15.76049 -54.32065,31.59631 -81.5455,47.28247 -24.21414,13.95147 -48.53644,27.71508 -72.78099,41.61389 -19.30147,11.06512 -38.32271,22.65069 -57.95154,33.09729 -7.68353,4.08917 -16.65058,5.81427 -25.09538,8.41357 -11.04482,3.39954 -22.21222,2.81281 -33.52946,1.20325 C 84.803467,715.80249 63.750282,704.96405 46.820015,686.14447 35.463669,673.52093 27.985886,658.91894 24.134489,642.38898 17.155663,612.43616 22.528137,584.82477 39.27084,559.14404 c 11.038448,-16.93133 27.424549,-27.13751 44.446361,-36.78448 20.428609,-11.57773 40.651459,-23.51789 61.020779,-35.20108 28.98577,-16.62534 58.08581,-33.05222 87.02407,-49.75952 38.04514,-21.96509 75.95011,-44.17285 113.97342,-66.17588 26.74967,-15.47937 53.61753,-30.75439 80.39157,-46.19183 16.79664,-9.6846 33.46088,-19.59949 50.28638,-29.23315 20.19177,-11.5611 40.53946,-22.84986 60.7305,-34.41221 17.0249,-9.74926 33.91119,-19.74023 50.87878,-29.59002 26.02417,-15.10724 51.91016,-30.46192 78.15137,-45.18283 19.0351,-10.67838 39.4552,-17.61476 61.63397,-15.19661 29.68897,3.23706 54.66608,15.76199 73.54309,39.61427 7.47028,9.43922 13.66462,19.60909 16.96875,31.00386 4.9516,17.07652 6.71332,34.31468 2.40192,52.26683 -3.47412,14.46591 -8.46545,27.70374 -17.26233,39.68415 -9.22888,12.56893 -20.98382,22.1011 -34.30792,29.8251 -19.17822,11.11764 -38.49036,22.00378 -57.71143,33.04782 -19.26886,11.07147 -38.49609,22.21545 -58.05084,33.53345 M 167.56612,529.0271 c -21.61103,12.55188 -43.15834,25.21509 -64.85022,37.62561 -23.80418,13.61902 -35.00925,43.37122 -24.114276,68.53839 7.946907,18.3573 22.329306,29.16699 41.272346,33.284 12.92329,2.80877 25.55991,-0.24048 37.16323,-7.00244 17.45497,-10.17206 35.0161,-20.16187 52.5161,-30.2569 34.8343,-20.09442 69.63551,-40.24634 104.49205,-60.30206 33.87912,-19.49341 67.83841,-38.84766 101.71091,-58.35254 33.62634,-19.3631 67.18801,-38.83847 100.77865,-58.26361 34.18286,-19.76752 68.33692,-39.58524 102.55811,-59.28629 35.36133,-20.35736 70.80352,-40.57425 106.17486,-60.91415 8.02961,-4.61737 16.50885,-8.72907 23.74067,-14.40021 15.26153,-11.96787 21.84484,-27.94876 20.43878,-47.61218 -1.41077,-19.72794 -11.04908,-34.11379 -27.69037,-43.28795 -14.62055,-8.06009 -30.74872,-8.47852 -46.36414,-2.52701 -8.29779,3.16255 -16.03473,7.90343 -23.80713,12.31544 -15.59521,8.85264 -31.04589,17.95994 -46.54699,26.97812 -17.67151,10.28089 -35.29841,20.63913 -53.01069,30.84925 -12.20111,7.03317 -24.55566,13.80005 -36.76824,20.81369 -19.45795,11.17462 -38.8407,22.48004 -58.28199,33.68371 -14.70294,8.473 -29.4541,16.86225 -44.17215,25.30912 -15.96939,9.1651 -31.9252,18.35382 -47.88696,27.53222 -17.09454,9.82974 -34.20035,19.64002 -51.28024,29.49518 -15.38852,8.87924 -30.74942,17.8064 -46.12125,26.71451 -12.99246,7.52923 -25.97082,15.08292 -38.97839,22.58606 -11.73047,6.76645 -23.49672,13.47082 -35.23871,20.21731 -15.02722,8.63404 -30.04595,17.28287 -45.73396,26.26273 z"
   id="path2" />
<path
   fill="#034569"
   opacity="1"
   stroke="none"
   d="m 633.09961,559.97022 c -17.73541,9.84265 -35.15924,19.47674 -52.62286,29.03833 -16.15088,8.84289 -32.33252,17.63 -48.52259,26.40112 -14.95721,8.10327 -29.89493,16.24481 -44.93088,24.20007 -15.17892,8.03107 -30.53457,15.72913 -45.68502,23.81256 -9.76877,5.21204 -19.45499,4.44232 -28.00635,-1.52582 -9.57584,-6.6831 -12.38632,-16.88287 -10.75223,-28.36059 1.15955,-8.14423 5.74808,-13.357 12.86405,-17.24475 27.49877,-15.02338 54.85656,-30.30524 82.24566,-45.52906 26.29059,-14.61328 52.55444,-29.27459 78.83087,-43.91345 33.65595,-18.75009 67.30933,-37.50485 100.96997,-56.24646 26.89026,-14.97195 53.7273,-30.04199 80.76239,-44.74786 3.47254,-1.88889 8.28937,-3.22162 11.97364,-2.43237 9.52234,2.03991 9.92761,10.69647 10.19531,18.17032 0.49469,13.81457 0.14886,27.66125 0.0682,41.49404 -0.16126,27.65885 0.29351,55.34296 -0.75714,82.969 -1.13227,29.77002 -16.16443,52.37683 -39.45227,70.10168 -18.30829,13.93469 -38.98035,23.80823 -58.95594,34.88575 -26.13336,14.49236 -52.26349,28.99133 -78.4588,43.37109 -15.91864,8.7384 -31.97711,17.22168 -47.93787,25.88379 -21.95684,11.91644 -43.88204,23.89117 -65.81835,35.8454 -23.83612,12.98944 -47.68222,25.96075 -71.49814,38.98724 -10.49536,5.74066 -20.84796,11.74682 -31.41458,17.35113 -7.26447,3.85297 -14.63159,7.32605 -23.27237,7.4538 -12.64594,0.18701 -23.28846,-10.41547 -25.91614,-20.3963 -2.22495,-8.4513 -4.01984,-17.38477 2.33334,-24.58514 4.23526,-4.80018 9.85514,-8.66724 15.45139,-11.92945 28.85092,-16.81793 57.87954,-33.33166 86.87628,-49.89886 18.35523,-10.48731 36.78442,-20.84516 55.14258,-31.32739 29.69803,-16.95728 59.29403,-34.09455 89.06552,-50.9217 27.97943,-15.81421 56.16418,-31.26477 84.18457,-47.00726 8.32043,-4.67462 16.85791,-9.33185 21.3772,-18.38885 1.36242,-2.7306 2.56591,-5.89625 2.59417,-8.87446 0.11377,-11.97491 0.24799,-23.992 -0.63092,-35.91943 -0.61108,-8.29211 -5.23126,-10.35779 -12.65051,-6.51489 -11.59393,6.00537 -23.04834,12.28094 -34.54437,18.47442 -4.29633,2.3147 -8.54389,4.7201 -13.10785,7.32435 z"
   id="path3" />
<path
   fill="#04456a"
   opacity="1"
   stroke="none"
   d="m 416.65991,224.94986 c 12.8071,2.06712 21.58078,8.29582 24.09531,21.17277 1.49667,7.66434 1.16846,15.45672 -3.96167,21.76537 -2.57849,3.17087 -6.44864,5.50201 -10.10614,7.54926 -18.3689,10.28173 -36.8664,20.33355 -55.3064,30.48849 -9.02963,4.9726 -18.0328,9.99332 -27.04745,14.99313 -17.01166,9.43518 -34.03342,18.85212 -51.03092,28.31275 -12.83151,7.14188 -25.6275,14.3475 -38.44673,21.5115 -30.85928,17.24567 -61.71638,34.49527 -92.58684,51.72098 -25.93156,14.46982 -51.8624,28.94113 -77.831997,43.34247 -9.118912,5.05688 -17.198845,1.50375 -19.701111,-8.6405 -0.627152,-2.54245 -0.821537,-5.24857 -0.823521,-7.87976 -0.02937,-38.99018 0.123165,-77.98081 -0.007,-116.97049 -0.112152,-33.60166 15.106655,-58.86722 41.477459,-78.46607 22.59857,-16.7953 47.91739,-28.9344 72.29175,-42.67259 30.24271,-17.04579 60.73247,-33.65509 91.18082,-50.33374 31.20257,-17.0918 62.47531,-34.05563 93.73352,-51.04573 27.40451,-14.895486 54.74332,-29.915925 82.29877,-44.527383 9.02145,-4.78368 18.43505,-8.994202 28.02237,-12.501999 11.88366,-4.347984 30.83856,3.895966 34.33914,19.890808 2.634,12.035263 1.2366,22.509911 -8.97751,29.685024 -9.54193,6.70295 -20.13693,11.9095 -30.28378,17.74799 -15.31473,8.81208 -30.60504,17.66753 -45.97467,26.38293 -19.58359,11.10495 -39.29636,21.98289 -58.84107,33.15527 -18.28424,10.45189 -36.38226,21.22897 -54.63504,31.7365 -17.43173,10.03492 -34.90564,19.99907 -52.45382,29.82864 -26.05141,14.59259 -52.3055,28.82829 -78.20862,43.67766 -7.67835,4.40173 -14.57981,10.20959 -21.62333,15.65008 -4.78349,3.69477 -6.26429,9.19019 -6.33123,14.95685 -0.12378,10.66205 -0.12088,21.32941 0.0726,31.99017 0.18799,10.35569 6.55348,13.63639 15.65098,8.56852 23.02759,-12.82782 46.14283,-25.49829 69.22339,-38.23108 20.29962,-11.19858 40.55391,-22.48035 60.9132,-33.56937 18.77185,-10.22442 37.67031,-20.21603 56.48721,-30.35808 13.65329,-7.35893 27.16284,-14.99252 40.93628,-22.1174 7.15469,-3.70108 14.39502,-7.75267 23.45599,-6.81297 z"
   id="path4" />




<path
   fill="#07476b"
   opacity="1"
   stroke="none"
   d="m 377.76901,693.76672 c -13.61801,15.60718 -33.24072,13.16913 -43.48849,0.38129 -7.31342,-9.1261 -8.49124,-19.67865 -3.66904,-30.05389 4.64822,-10.00098 15.3494,-16.4892 26.84161,-15.5857 11.30869,0.8891 19.59235,6.72162 24.04255,16.87378 4.25997,9.7182 2.48156,19.34302 -3.72663,28.38452 z"
   id="path9" />
<path
   fill="#08476b"
   opacity="1"
   stroke="none"
   d="m 503.24756,191.72807 c 10.07757,6.63105 15.28693,19.57701 12.06183,29.82271 -4.46393,14.18129 -16.13254,20.93762 -26.36926,21.07509 -23.2504,0.31226 -34.95563,-22.86015 -25.53779,-41.2822 6.6752,-13.05726 25.11243,-19.38495 39.84522,-9.6156 z"
   id="path10" />





</svg>
