<svg version="1.1" id="Layer_1" xmlns="http://www.w3.org/2000/svg" xmlns:xlink="http://www.w3.org/1999/xlink" x="0px" y="0px"
	 width="100%" viewBox="0 0 848 1024" enable-background="new 0 0 848 1024" xml:space="preserve">
<path fill="#FDFEFE" opacity="1.000000" stroke="none" 
	d="
M439.000000,1025.000000 
	C292.666656,1025.000000 146.833328,1025.000000 1.000000,1025.000000 
	C1.000000,683.666687 1.000000,342.333344 1.000000,1.000000 
	C283.666656,1.000000 566.333313,1.000000 849.000000,1.000000 
	C849.000000,342.333344 849.000000,683.666687 849.000000,1025.000000 
	C712.500000,1025.000000 576.000000,1025.000000 439.000000,1025.000000 
M653.698547,430.186127 
	C672.944031,419.073914 692.171265,407.929932 711.440125,396.858459 
	C730.661194,385.814423 749.973328,374.928284 769.151550,363.810638 
	C782.475647,356.086639 794.230591,346.554474 803.459473,333.985535 
	C812.256348,322.005127 817.247681,308.767303 820.721802,294.301392 
	C825.033203,276.349243 823.271484,259.111084 818.319885,242.034561 
	C815.015747,230.639786 808.821411,220.469925 801.351135,211.030701 
	C782.474121,187.178421 757.497009,174.653488 727.808044,171.416428 
	C705.629272,168.998276 685.209167,175.934662 666.174072,186.613037 
	C639.932861,201.333954 614.046875,216.688629 588.022705,231.795868 
	C571.055115,241.645660 554.168823,251.636627 537.143921,261.385895 
	C516.952881,272.948242 496.605194,284.237000 476.413422,295.798096 
	C459.587921,305.431763 442.923676,315.346649 426.127045,325.031250 
	C399.352997,340.468689 372.485138,355.743713 345.735474,371.223083 
	C307.712158,393.226105 269.807190,415.433868 231.762054,437.398956 
	C202.823792,454.106262 173.723755,470.533142 144.737976,487.158478 
	C124.368660,498.841675 104.145813,510.781830 83.717201,522.359558 
	C66.695389,532.006531 50.309288,542.212708 39.270840,559.144043 
	C22.528137,584.824768 17.155663,612.436157 24.134489,642.388977 
	C27.985886,658.918945 35.463669,673.520935 46.820015,686.144470 
	C63.750282,704.964050 84.803467,715.802490 109.842949,719.363708 
	C121.160194,720.973267 132.327591,721.559998 143.372406,718.160461 
	C151.817215,715.561157 160.784256,713.836060 168.467789,709.746887 
	C188.096619,699.300293 207.117859,687.714722 226.419327,676.649597 
	C250.663879,662.750793 274.986176,648.987183 299.200317,635.035706 
	C326.425171,619.349548 353.563751,603.513733 380.745819,587.753235 
	C398.952820,577.196533 417.139404,566.604065 435.390900,556.124756 
	C457.382996,543.497803 479.483154,531.058472 501.444916,518.379272 
	C520.510437,507.372192 539.399536,496.059937 558.455200,485.035614 
	C580.597229,472.225677 602.844177,459.597107 625.028503,446.859985 
	C634.401489,441.478455 643.730774,436.020752 653.698547,430.186127 
M633.393799,559.730042 
	C637.663574,557.365967 641.911133,554.960571 646.207458,552.645874 
	C657.703491,546.452393 669.157898,540.176819 680.751831,534.171448 
	C688.171082,530.328552 692.791260,532.394226 693.402344,540.686340 
	C694.281250,552.613770 694.147034,564.630859 694.033264,576.605774 
	C694.005005,579.583984 692.801514,582.749634 691.439087,585.480225 
	C686.919800,594.537231 678.382324,599.194458 670.061890,603.869080 
	C642.041504,619.611572 613.856750,635.062134 585.877319,650.876343 
	C556.105835,667.703491 526.509827,684.840759 496.811798,701.798035 
	C478.453644,712.280273 460.024445,722.638123 441.669220,733.125427 
	C412.672485,749.692627 383.643860,766.206360 354.792938,783.024292 
	C349.196686,786.286499 343.576813,790.153564 339.341553,794.953735 
	C332.988373,802.154114 334.783264,811.087585 337.008209,819.538879 
	C339.635895,829.519714 350.278412,840.122192 362.924347,839.935181 
	C371.565125,839.807434 378.932251,836.334351 386.196716,832.481384 
	C396.763336,826.877075 407.115936,820.870911 417.611298,815.130249 
	C441.427216,802.103760 465.273315,789.132446 489.109436,776.143005 
	C511.045746,764.188782 532.970947,752.214050 554.927795,740.297607 
	C570.888550,731.635498 586.947021,723.152222 602.865662,714.413818 
	C629.060974,700.034058 655.191101,685.535095 681.324463,671.042725 
	C701.300049,659.965210 721.972107,650.091675 740.280396,636.156982 
	C763.568237,618.432129 778.600403,595.825317 779.732666,566.055298 
	C780.783325,538.429260 780.328552,510.745148 780.489807,483.086304 
	C780.570435,469.253510 780.916260,455.406830 780.421570,441.592255 
	C780.153870,434.118408 779.748596,425.461853 770.226257,423.421936 
	C766.541992,422.632690 761.725159,423.965424 758.252625,425.854309 
	C731.217529,440.560181 704.380493,455.630219 677.490234,470.602173 
	C643.829590,489.343781 610.176208,508.098541 576.520264,526.848633 
	C550.243835,541.487488 523.979980,556.148804 497.689392,570.762085 
	C470.300293,585.985901 442.942505,601.267761 415.443726,616.291138 
	C408.327759,620.178894 403.739227,625.391663 402.579681,633.535889 
	C400.945587,645.013611 403.756073,655.213379 413.331909,661.896484 
	C421.883270,667.864624 431.569489,668.634338 441.338257,663.422302 
	C456.488708,655.338867 471.844360,647.640808 487.023285,639.609741 
	C502.059235,631.654480 516.996948,623.512939 531.954163,615.409668 
	C548.144226,606.638550 564.325867,597.851440 580.476746,589.008545 
	C597.940369,579.446960 615.364197,569.812866 633.393799,559.730042 
M416.211121,224.937225 
	C407.598938,224.010162 400.358612,228.061752 393.203918,231.762833 
	C379.430481,238.887711 365.920929,246.521301 352.267639,253.880234 
	C333.450745,264.022278 314.552277,274.013885 295.780426,284.238312 
	C275.421143,295.327332 255.166855,306.609100 234.867233,317.807678 
	C211.786667,330.540466 188.671432,343.210938 165.643845,356.038757 
	C156.546341,361.106628 150.180847,357.825928 149.992859,347.470245 
	C149.799347,336.809479 149.796448,326.142120 149.920227,315.480072 
	C149.987167,309.713409 151.467972,304.217987 156.251465,300.523224 
	C163.294983,295.082733 170.196442,289.274872 177.874786,284.873138 
	C203.777908,270.023773 230.031998,255.788071 256.083405,241.195480 
	C273.631592,231.365906 291.105499,221.401764 308.537231,211.366837 
	C326.790009,200.859314 344.888031,190.082230 363.172272,179.630341 
	C382.716980,168.457962 402.429749,157.580017 422.013336,146.475067 
	C437.382965,137.759674 452.673279,128.904221 467.988007,120.092140 
	C478.134857,114.253654 488.729858,109.047096 498.271790,102.344154 
	C508.485901,95.169037 509.883301,84.694389 507.249298,72.659126 
	C503.748718,56.664284 484.793823,48.420334 472.910156,52.768318 
	C463.322845,56.276115 453.909241,60.486637 444.887787,65.270317 
	C417.332336,79.881775 389.993530,94.902214 362.589020,109.797699 
	C331.330811,126.787804 300.058075,143.751633 268.855499,160.843430 
	C238.407150,177.522079 207.917389,194.131378 177.674683,211.177170 
	C153.300323,224.915359 127.981499,237.054459 105.382927,253.849762 
	C79.012123,273.448608 63.793316,298.714172 63.905468,332.315826 
	C64.035606,371.305511 63.883072,410.296143 63.912441,449.286316 
	C63.914425,451.917511 64.108810,454.623627 64.735962,457.166077 
	C67.238228,467.310333 75.318161,470.863464 84.437073,465.806580 
	C110.406670,451.405243 136.337509,436.933929 162.269073,422.464111 
	C193.139526,405.238403 223.996628,387.988800 254.855911,370.743134 
	C267.675140,363.579132 280.471130,356.373505 293.302643,349.231628 
	C310.300140,339.770996 327.321899,330.354065 344.333557,320.918884 
	C353.348206,315.919067 362.351379,310.898346 371.381012,305.925751 
	C389.821014,295.770813 408.318512,285.718994 426.687408,275.437256 
	C430.344910,273.390015 434.215057,271.058868 436.793549,267.888000 
	C441.923676,261.579346 442.251892,253.786972 440.755219,246.122635 
	C438.240692,233.245682 429.467010,227.016983 416.211121,224.937225 
M40.174717,961.501587 
	C40.179230,966.164856 40.169277,970.828186 40.191132,975.491394 
	C40.244205,986.814636 40.177216,998.141235 40.461693,1009.458862 
	C40.540138,1012.579895 41.468056,1015.840027 45.711281,1016.051453 
	C50.323685,1016.281189 50.911926,1012.723511 51.721603,1009.525085 
	C52.040012,1008.267395 51.843487,1006.873718 51.843994,1005.541992 
	C51.849232,991.718994 51.820057,977.895874 51.879765,964.073120 
	C51.887398,962.305908 52.347031,960.540649 52.597271,958.774414 
	C54.934101,960.160217 56.044037,961.668762 57.024525,963.257263 
	C64.896141,976.009949 72.637329,988.844666 80.639885,1001.514404 
	C85.048370,1008.494080 89.782936,1008.362732 94.056473,1001.263855 
	C99.588211,992.075073 104.849991,982.724243 110.320488,973.497986 
	C113.275276,968.514587 116.422661,963.645325 119.483162,958.724609 
	C120.029953,958.899048 120.576744,959.073547 121.123535,959.247986 
	C121.242088,961.134644 121.454407,963.020874 121.464294,964.908081 
	C121.539352,979.230103 121.573524,993.552307 121.623405,1007.874451 
	C121.635803,1011.433777 122.605637,1014.597168 126.294106,1015.825867 
	C130.343811,1017.174683 133.426804,1013.734924 133.457214,1007.666687 
	C133.579086,983.352478 133.699142,959.036865 133.477112,934.724915 
	C133.456390,932.455872 131.546005,929.331909 129.584152,928.160278 
	C126.746681,926.465881 124.026161,928.082275 122.205772,931.133057 
	C114.985909,943.232300 107.608299,955.237244 100.321297,967.296631 
	C96.131752,974.230042 92.003876,981.200745 87.452026,988.817688 
	C85.679253,986.830688 84.403450,985.790100 83.616852,984.460144 
	C73.337555,967.080444 63.129341,949.658691 52.898361,932.250305 
	C51.191898,929.346863 48.771847,927.189941 45.294086,928.059387 
	C41.710018,928.955383 40.103760,931.769714 40.130722,935.531311 
	C40.190399,943.854736 40.163170,952.178772 40.174717,961.501587 
M466.807465,980.642090 
	C462.075256,971.674011 457.609741,962.551086 452.522949,953.788879 
	C448.734467,947.263000 443.533661,947.439453 439.901978,954.095459 
	C435.264740,962.594299 431.181671,971.393677 426.725616,979.994019 
	C424.559143,984.175598 422.088043,988.199280 419.340424,993.021851 
	C418.308990,991.252563 417.762817,990.610291 417.528503,989.869446 
	C414.119293,979.089539 410.697601,968.313049 407.392120,957.501160 
	C404.931915,949.453979 402.705383,941.335388 400.233643,933.291931 
	C399.120361,929.669128 396.434448,927.579590 392.666565,928.519043 
	C388.892944,929.459900 387.529175,932.568420 388.364014,936.266357 
	C389.223938,940.075623 390.397217,943.821289 391.571289,947.551331 
	C394.976807,958.370667 398.530975,969.143738 401.876007,979.981445 
	C405.023071,990.177795 407.778534,1000.500366 411.173492,1010.610474 
	C411.918304,1012.828552 414.323578,1015.152283 416.526215,1016.053101 
	C419.416199,1017.235168 421.639740,1015.218262 423.157288,1012.393555 
	C429.576904,1000.444214 436.107819,988.553955 442.691895,976.694275 
	C443.890411,974.535339 445.527588,972.619934 446.962250,970.592102 
	C448.359711,972.637939 449.983734,974.566284 451.116516,976.749451 
	C456.915283,987.925232 462.535950,999.193481 468.336853,1010.368103 
	C469.969604,1013.513367 472.328674,1017.102783 476.190674,1015.777222 
	C478.550323,1014.967163 480.658630,1011.691101 481.679962,1009.057312 
	C484.232574,1002.475037 486.188660,995.653748 488.226227,988.880859 
	C493.485321,971.399719 498.584534,953.870117 503.920807,936.412781 
	C505.204712,932.212524 503.727692,929.611389 500.141907,927.941895 
	C497.385559,926.658569 493.251709,929.071228 492.111023,932.812988 
	C488.056122,946.114624 484.200653,959.476868 480.215912,972.800110 
	C478.303223,979.195374 476.270355,985.554626 474.291870,991.930237 
	C473.799225,992.009460 473.306549,992.088745 472.813873,992.168030 
	C470.873749,988.572449 468.933594,984.976868 466.807465,980.642090 
M589.490479,927.645447 
	C576.160217,927.631348 562.829712,927.650513 549.499756,927.583008 
	C545.509399,927.562805 543.481445,928.933411 543.514343,933.365173 
	C543.702515,958.691650 543.691833,984.019470 543.767944,1009.346863 
	C543.785645,1015.238647 544.916931,1016.524353 550.551331,1016.541565 
	C566.547302,1016.590332 582.543762,1016.556824 598.539612,1016.483093 
	C600.337097,1016.474854 602.526367,1016.547546 603.829285,1015.606750 
	C605.465332,1014.425598 607.303955,1012.252014 607.331543,1010.479858 
	C607.358276,1008.763855 605.516663,1006.567444 603.900818,1005.419312 
	C602.596375,1004.492554 600.406799,1004.616455 598.608765,1004.610535 
	C585.945312,1004.568787 573.280518,1004.536072 560.618286,1004.681213 
	C557.007507,1004.722595 555.428955,1003.457642 555.529602,999.751465 
	C555.687805,993.923767 555.701721,988.084839 555.527100,982.258118 
	C555.428284,978.959900 556.708679,977.984314 559.931458,977.969604 
	C568.245972,977.931763 576.577820,977.770630 584.858276,977.105896 
	C586.777161,976.951904 590.077209,974.496948 590.002930,973.266235 
	C589.867554,971.023254 588.062866,968.459412 586.222351,966.886292 
	C584.949036,965.798035 582.446533,965.903320 580.492676,965.900146 
	C573.496399,965.888916 566.498352,966.003418 559.504089,966.188232 
	C556.809509,966.259460 555.557800,965.395020 555.634033,962.477600 
	C555.795166,956.316406 555.790100,950.146729 555.667053,943.984192 
	C555.606873,940.968567 556.748169,939.850464 559.784302,939.926270 
	C566.778809,940.100830 573.779724,940.034607 580.778015,940.040100 
	C587.276489,940.045227 593.779846,940.165100 600.271545,939.947693 
	C604.196411,939.816223 607.844849,938.101990 607.996826,933.793152 
	C608.157104,929.250977 604.401184,927.906128 600.479858,927.704895 
	C597.155823,927.534302 593.816833,927.654541 589.490479,927.645447 
M189.385300,970.616028 
	C183.783066,982.553162 178.039230,994.427185 172.671722,1006.468933 
	C171.210159,1009.747864 171.395508,1013.247192 175.260483,1015.563171 
	C179.373352,1018.027649 181.612640,1015.421448 183.193970,1012.544312 
	C186.658478,1006.240967 189.912216,999.794250 192.771057,993.197693 
	C194.094971,990.142822 195.879181,989.433228 198.874649,989.475830 
	C207.871704,989.603821 216.880600,989.731445 225.867371,989.393555 
	C230.249847,989.228760 232.409393,990.880859 233.966675,994.829346 
	C236.252441,1000.624756 238.988831,1006.257935 241.803940,1011.823303 
	C243.487518,1015.151672 246.479996,1017.555969 250.194199,1015.726318 
	C253.376419,1014.158813 254.076508,1011.096497 252.388931,1007.395386 
	C245.473373,992.228943 238.840683,976.933899 232.034225,961.717346 
	C227.460312,951.491943 222.854248,941.278992 218.088196,931.142395 
	C216.243546,927.219116 212.088272,926.418762 209.204285,929.370300 
	C207.529022,931.084778 206.090347,933.193359 205.086502,935.373779 
	C199.814545,946.825073 194.715393,958.355957 189.385300,970.616028 
M378.037323,693.520264 
	C383.977203,684.725220 385.755615,675.100403 381.495636,665.382202 
	C377.045441,655.230042 368.761780,649.397522 357.453094,648.508423 
	C345.960876,647.604919 335.259705,654.093140 330.611481,664.094116 
	C325.789276,674.469360 326.967102,685.021912 334.280518,694.148010 
	C344.528290,706.935852 364.151001,709.373901 378.037323,693.520264 
M502.953918,191.498001 
	C488.514771,181.958725 470.077545,188.286407 463.402344,201.343674 
	C453.984497,219.765717 465.689728,242.938126 488.940125,242.625870 
	C499.176849,242.488403 510.845459,235.732071 515.309387,221.550781 
	C518.534485,211.305084 513.325134,198.359116 502.953918,191.498001 
M291.550507,930.936157 
	C291.695984,933.163757 291.079529,935.860596 292.114197,937.540527 
	C297.623383,946.485718 303.362885,955.305481 309.422638,963.886230 
	C311.614594,966.990173 311.738159,969.159668 309.613708,972.254700 
	C301.756836,983.701477 294.186554,995.344421 286.405579,1006.844055 
	C284.053040,1010.320801 285.009705,1013.205994 287.935455,1015.315674 
	C290.782837,1017.368835 293.483795,1016.470215 295.558411,1013.537781 
	C302.841827,1003.242493 310.306488,993.072937 317.438721,982.674866 
	C319.533112,979.621399 320.458923,979.489502 322.498688,982.654724 
	C327.977753,991.157043 333.672852,999.524475 339.456421,1007.824036 
	C341.285980,1010.449768 343.349274,1013.149048 345.919312,1014.928162 
	C347.320709,1015.898254 350.760193,1015.830444 351.928131,1014.757996 
	C353.451080,1013.359375 354.242249,1010.486694 354.192169,1008.274536 
	C354.154602,1006.615784 352.330017,1004.972656 351.236359,1003.366638 
	C344.682373,993.742554 338.413391,983.902771 331.420746,974.607788 
	C327.682434,969.638672 328.609406,965.853027 331.714172,961.357910 
	C337.251038,953.341675 342.536713,945.151123 347.875488,936.999390 
	C350.144775,933.534607 349.200592,930.634705 345.839905,928.568481 
	C342.128082,926.286255 339.633179,928.401123 337.542023,931.288086 
	C335.142273,934.601135 332.808960,937.962280 330.454346,941.307861 
	C326.943420,946.296265 323.439148,951.289307 319.530823,956.851257 
	C316.864136,953.161377 314.797516,950.457825 312.898926,947.640991 
	C309.318726,942.329529 306.031219,936.809448 302.252167,931.646851 
	C299.002502,927.207520 295.854889,926.995300 291.550507,930.936157 
M746.903137,986.479675 
	C747.005859,993.800720 747.076904,1001.122437 747.221680,1008.442688 
	C747.332031,1014.022827 749.759521,1016.362549 755.459229,1016.427246 
	C761.783691,1016.498962 768.108887,1016.543884 774.433716,1016.543518 
	C784.087646,1016.542908 793.742554,1016.565613 803.395081,1016.434204 
	C808.222107,1016.368530 811.721802,1013.159790 811.108948,1009.447327 
	C810.364258,1004.936401 806.794250,1004.550049 803.177063,1004.550110 
	C790.527161,1004.550293 777.874146,1004.444397 765.229065,1004.705566 
	C760.630859,1004.800537 759.119812,1003.167725 759.165955,998.633911 
	C759.333557,982.157532 759.200500,965.678162 759.172424,949.199890 
	C759.163635,944.040039 759.500854,938.837769 758.919861,933.741516 
	C758.690491,931.730103 756.631165,928.721313 754.966003,928.392761 
	C752.998413,928.004700 750.082520,929.549561 748.470398,931.153748 
	C747.207642,932.410278 746.876099,935.030884 746.865051,937.049438 
	C746.776978,953.194214 746.863708,969.339905 746.903137,986.479675 
M658.431030,961.500000 
	C658.437500,952.671021 658.489014,943.841675 658.431458,935.013123 
	C658.402344,930.556580 655.680603,927.346008 652.047668,927.786987 
	C647.991821,928.279358 646.110901,931.164917 646.028076,935.041748 
	C645.950073,938.695618 646.365540,942.357300 646.375916,946.016113 
	C646.434814,966.838867 646.432617,987.661804 646.462280,1008.484680 
	C646.470825,1014.455078 648.405029,1016.454773 654.404236,1016.526489 
	C661.399719,1016.610168 668.396484,1016.612610 675.392639,1016.601501 
	C684.221436,1016.587463 693.050781,1016.572327 701.878601,1016.459961 
	C705.758301,1016.410583 709.255737,1015.677246 709.615784,1010.708313 
	C709.912048,1006.618958 707.675232,1004.655212 702.117981,1004.627014 
	C689.624695,1004.563721 677.127502,1004.435181 664.639038,1004.687012 
	C659.937500,1004.781799 658.124390,1003.402100 658.252991,998.479431 
	C658.566101,986.492981 658.398987,974.493958 658.431030,961.500000 
z"/>
<path fill="#044569" opacity="1.000000" stroke="none" 
	d="
M653.389282,430.391907 
	C643.730774,436.020752 634.401489,441.478455 625.028503,446.859985 
	C602.844177,459.597107 580.597229,472.225677 558.455200,485.035614 
	C539.399536,496.059937 520.510437,507.372192 501.444916,518.379272 
	C479.483154,531.058472 457.382996,543.497803 435.390900,556.124756 
	C417.139404,566.604065 398.952820,577.196533 380.745819,587.753235 
	C353.563751,603.513733 326.425171,619.349548 299.200317,635.035706 
	C274.986176,648.987183 250.663879,662.750793 226.419327,676.649597 
	C207.117859,687.714722 188.096619,699.300293 168.467789,709.746887 
	C160.784256,713.836060 151.817215,715.561157 143.372406,718.160461 
	C132.327591,721.559998 121.160194,720.973267 109.842949,719.363708 
	C84.803467,715.802490 63.750282,704.964050 46.820015,686.144470 
	C35.463669,673.520935 27.985886,658.918945 24.134489,642.388977 
	C17.155663,612.436157 22.528137,584.824768 39.270840,559.144043 
	C50.309288,542.212708 66.695389,532.006531 83.717201,522.359558 
	C104.145813,510.781830 124.368660,498.841675 144.737976,487.158478 
	C173.723755,470.533142 202.823792,454.106262 231.762054,437.398956 
	C269.807190,415.433868 307.712158,393.226105 345.735474,371.223083 
	C372.485138,355.743713 399.352997,340.468689 426.127045,325.031250 
	C442.923676,315.346649 459.587921,305.431763 476.413422,295.798096 
	C496.605194,284.237000 516.952881,272.948242 537.143921,261.385895 
	C554.168823,251.636627 571.055115,241.645660 588.022705,231.795868 
	C614.046875,216.688629 639.932861,201.333954 666.174072,186.613037 
	C685.209167,175.934662 705.629272,168.998276 727.808044,171.416428 
	C757.497009,174.653488 782.474121,187.178421 801.351135,211.030701 
	C808.821411,220.469925 815.015747,230.639786 818.319885,242.034561 
	C823.271484,259.111084 825.033203,276.349243 820.721802,294.301392 
	C817.247681,308.767303 812.256348,322.005127 803.459473,333.985535 
	C794.230591,346.554474 782.475647,356.086639 769.151550,363.810638 
	C749.973328,374.928284 730.661194,385.814423 711.440125,396.858459 
	C692.171265,407.929932 672.944031,419.073914 653.389282,430.391907 
M167.566116,529.027100 
	C145.955093,541.578979 124.407784,554.242188 102.715904,566.652710 
	C78.911720,580.271729 67.706650,610.023926 78.601624,635.191101 
	C86.548531,653.548401 100.930931,664.358093 119.873970,668.475098 
	C132.797256,671.283875 145.433884,668.234619 157.037201,661.472656 
	C174.492172,651.300598 192.053299,641.310791 209.553299,631.215759 
	C244.387604,611.121338 279.188812,590.969421 314.045349,570.913696 
	C347.924469,551.420288 381.883759,532.066040 415.756256,512.561157 
	C449.382599,493.198059 482.944275,473.722687 516.534912,454.297546 
	C550.717773,434.530029 584.871826,414.712311 619.093018,395.011261 
	C654.454346,374.653900 689.896545,354.437012 725.267883,334.097107 
	C733.297485,329.479736 741.776733,325.368042 749.008545,319.696899 
	C764.270081,307.729034 770.853394,291.748138 769.447327,272.084717 
	C768.036560,252.356781 758.398254,237.970932 741.756958,228.796768 
	C727.136414,220.736679 711.008240,220.318253 695.392822,226.269760 
	C687.095032,229.432312 679.358093,234.173187 671.585693,238.585205 
	C655.990479,247.437836 640.539795,256.545135 625.038696,265.563324 
	C607.367188,275.844208 589.740295,286.202454 572.028015,296.412567 
	C559.826904,303.445740 547.472351,310.212616 535.259766,317.226257 
	C515.801819,328.400879 496.419067,339.706299 476.977783,350.909973 
	C462.274841,359.382965 447.523682,367.772217 432.805634,376.219086 
	C416.836243,385.384186 400.880432,394.572906 384.918671,403.751312 
	C367.824127,413.581055 350.718323,423.391327 333.638428,433.246490 
	C318.249908,442.125732 302.889008,451.052887 287.517181,459.960999 
	C274.524719,467.490234 261.546356,475.043915 248.538788,482.547058 
	C236.808319,489.313507 225.042068,496.017883 213.300079,502.764374 
	C198.272858,511.398407 183.254135,520.047241 167.566116,529.027100 
z"/>
<path fill="#034569" opacity="1.000000" stroke="none" 
	d="
M633.099609,559.970215 
	C615.364197,569.812866 597.940369,579.446960 580.476746,589.008545 
	C564.325867,597.851440 548.144226,606.638550 531.954163,615.409668 
	C516.996948,623.512939 502.059235,631.654480 487.023285,639.609741 
	C471.844360,647.640808 456.488708,655.338867 441.338257,663.422302 
	C431.569489,668.634338 421.883270,667.864624 413.331909,661.896484 
	C403.756073,655.213379 400.945587,645.013611 402.579681,633.535889 
	C403.739227,625.391663 408.327759,620.178894 415.443726,616.291138 
	C442.942505,601.267761 470.300293,585.985901 497.689392,570.762085 
	C523.979980,556.148804 550.243835,541.487488 576.520264,526.848633 
	C610.176208,508.098541 643.829590,489.343781 677.490234,470.602173 
	C704.380493,455.630219 731.217529,440.560181 758.252625,425.854309 
	C761.725159,423.965424 766.541992,422.632690 770.226257,423.421936 
	C779.748596,425.461853 780.153870,434.118408 780.421570,441.592255 
	C780.916260,455.406830 780.570435,469.253510 780.489807,483.086304 
	C780.328552,510.745148 780.783325,538.429260 779.732666,566.055298 
	C778.600403,595.825317 763.568237,618.432129 740.280396,636.156982 
	C721.972107,650.091675 701.300049,659.965210 681.324463,671.042725 
	C655.191101,685.535095 629.060974,700.034058 602.865662,714.413818 
	C586.947021,723.152222 570.888550,731.635498 554.927795,740.297607 
	C532.970947,752.214050 511.045746,764.188782 489.109436,776.143005 
	C465.273315,789.132446 441.427216,802.103760 417.611298,815.130249 
	C407.115936,820.870911 396.763336,826.877075 386.196716,832.481384 
	C378.932251,836.334351 371.565125,839.807434 362.924347,839.935181 
	C350.278412,840.122192 339.635895,829.519714 337.008209,819.538879 
	C334.783264,811.087585 332.988373,802.154114 339.341553,794.953735 
	C343.576813,790.153564 349.196686,786.286499 354.792938,783.024292 
	C383.643860,766.206360 412.672485,749.692627 441.669220,733.125427 
	C460.024445,722.638123 478.453644,712.280273 496.811798,701.798035 
	C526.509827,684.840759 556.105835,667.703491 585.877319,650.876343 
	C613.856750,635.062134 642.041504,619.611572 670.061890,603.869080 
	C678.382324,599.194458 686.919800,594.537231 691.439087,585.480225 
	C692.801514,582.749634 694.005005,579.583984 694.033264,576.605774 
	C694.147034,564.630859 694.281250,552.613770 693.402344,540.686340 
	C692.791260,532.394226 688.171082,530.328552 680.751831,534.171448 
	C669.157898,540.176819 657.703491,546.452393 646.207458,552.645874 
	C641.911133,554.960571 637.663574,557.365967 633.099609,559.970215 
z"/>
<path fill="#04456A" opacity="1.000000" stroke="none" 
	d="
M416.659912,224.949860 
	C429.467010,227.016983 438.240692,233.245682 440.755219,246.122635 
	C442.251892,253.786972 441.923676,261.579346 436.793549,267.888000 
	C434.215057,271.058868 430.344910,273.390015 426.687408,275.437256 
	C408.318512,285.718994 389.821014,295.770813 371.381012,305.925751 
	C362.351379,310.898346 353.348206,315.919067 344.333557,320.918884 
	C327.321899,330.354065 310.300140,339.770996 293.302643,349.231628 
	C280.471130,356.373505 267.675140,363.579132 254.855911,370.743134 
	C223.996628,387.988800 193.139526,405.238403 162.269073,422.464111 
	C136.337509,436.933929 110.406670,451.405243 84.437073,465.806580 
	C75.318161,470.863464 67.238228,467.310333 64.735962,457.166077 
	C64.108810,454.623627 63.914425,451.917511 63.912441,449.286316 
	C63.883072,410.296143 64.035606,371.305511 63.905468,332.315826 
	C63.793316,298.714172 79.012123,273.448608 105.382927,253.849762 
	C127.981499,237.054459 153.300323,224.915359 177.674683,211.177170 
	C207.917389,194.131378 238.407150,177.522079 268.855499,160.843430 
	C300.058075,143.751633 331.330811,126.787804 362.589020,109.797699 
	C389.993530,94.902214 417.332336,79.881775 444.887787,65.270317 
	C453.909241,60.486637 463.322845,56.276115 472.910156,52.768318 
	C484.793823,48.420334 503.748718,56.664284 507.249298,72.659126 
	C509.883301,84.694389 508.485901,95.169037 498.271790,102.344154 
	C488.729858,109.047096 478.134857,114.253654 467.988007,120.092140 
	C452.673279,128.904221 437.382965,137.759674 422.013336,146.475067 
	C402.429749,157.580017 382.716980,168.457962 363.172272,179.630341 
	C344.888031,190.082230 326.790009,200.859314 308.537231,211.366837 
	C291.105499,221.401764 273.631592,231.365906 256.083405,241.195480 
	C230.031998,255.788071 203.777908,270.023773 177.874786,284.873138 
	C170.196442,289.274872 163.294983,295.082733 156.251465,300.523224 
	C151.467972,304.217987 149.987167,309.713409 149.920227,315.480072 
	C149.796448,326.142120 149.799347,336.809479 149.992859,347.470245 
	C150.180847,357.825928 156.546341,361.106628 165.643845,356.038757 
	C188.671432,343.210938 211.786667,330.540466 234.867233,317.807678 
	C255.166855,306.609100 275.421143,295.327332 295.780426,284.238312 
	C314.552277,274.013885 333.450745,264.022278 352.267639,253.880234 
	C365.920929,246.521301 379.430481,238.887711 393.203918,231.762833 
	C400.358612,228.061752 407.598938,224.010162 416.659912,224.949860 
z"/>
<path fill="#144C70" opacity="1.000000" stroke="none" 
	d="
M40.173054,961.002075 
	C40.163170,952.178772 40.190399,943.854736 40.130722,935.531311 
	C40.103760,931.769714 41.710018,928.955383 45.294086,928.059387 
	C48.771847,927.189941 51.191898,929.346863 52.898361,932.250305 
	C63.129341,949.658691 73.337555,967.080444 83.616852,984.460144 
	C84.403450,985.790100 85.679253,986.830688 87.452026,988.817688 
	C92.003876,981.200745 96.131752,974.230042 100.321297,967.296631 
	C107.608299,955.237244 114.985909,943.232300 122.205772,931.133057 
	C124.026161,928.082275 126.746681,926.465881 129.584152,928.160278 
	C131.546005,929.331909 133.456390,932.455872 133.477112,934.724915 
	C133.699142,959.036865 133.579086,983.352478 133.457214,1007.666687 
	C133.426804,1013.734924 130.343811,1017.174683 126.294106,1015.825867 
	C122.605637,1014.597168 121.635803,1011.433777 121.623405,1007.874451 
	C121.573524,993.552307 121.539352,979.230103 121.464294,964.908081 
	C121.454407,963.020874 121.242088,961.134644 121.123535,959.247986 
	C120.576744,959.073547 120.029953,958.899048 119.483162,958.724609 
	C116.422661,963.645325 113.275276,968.514587 110.320488,973.497986 
	C104.849991,982.724243 99.588211,992.075073 94.056473,1001.263855 
	C89.782936,1008.362732 85.048370,1008.494080 80.639885,1001.514404 
	C72.637329,988.844666 64.896141,976.009949 57.024525,963.257263 
	C56.044037,961.668762 54.934101,960.160217 52.597271,958.774414 
	C52.347031,960.540649 51.887398,962.305908 51.879765,964.073120 
	C51.820057,977.895874 51.849232,991.718994 51.843994,1005.541992 
	C51.843487,1006.873718 52.040012,1008.267395 51.721603,1009.525085 
	C50.911926,1012.723511 50.323685,1016.281189 45.711281,1016.051453 
	C41.468056,1015.840027 40.540138,1012.579895 40.461693,1009.458862 
	C40.177216,998.141235 40.244205,986.814636 40.191132,975.491394 
	C40.169277,970.828186 40.179230,966.164856 40.173054,961.002075 
z"/>
<path fill="#114E72" opacity="1.000000" stroke="none" 
	d="
M466.900452,981.011719 
	C468.933594,984.976868 470.873749,988.572449 472.813873,992.168030 
	C473.306549,992.088745 473.799225,992.009460 474.291870,991.930237 
	C476.270355,985.554626 478.303223,979.195374 480.215912,972.800110 
	C484.200653,959.476868 488.056122,946.114624 492.111023,932.812988 
	C493.251709,929.071228 497.385559,926.658569 500.141907,927.941895 
	C503.727692,929.611389 505.204712,932.212524 503.920807,936.412781 
	C498.584534,953.870117 493.485321,971.399719 488.226227,988.880859 
	C486.188660,995.653748 484.232574,1002.475037 481.679962,1009.057312 
	C480.658630,1011.691101 478.550323,1014.967163 476.190674,1015.777222 
	C472.328674,1017.102783 469.969604,1013.513367 468.336853,1010.368103 
	C462.535950,999.193481 456.915283,987.925232 451.116516,976.749451 
	C449.983734,974.566284 448.359711,972.637939 446.962219,970.592102 
	C445.527588,972.619934 443.890411,974.535339 442.691895,976.694275 
	C436.107819,988.553955 429.576904,1000.444214 423.157288,1012.393555 
	C421.639740,1015.218262 419.416199,1017.235168 416.526215,1016.053101 
	C414.323578,1015.152283 411.918304,1012.828552 411.173492,1010.610474 
	C407.778534,1000.500366 405.023071,990.177795 401.876007,979.981445 
	C398.530975,969.143738 394.976807,958.370667 391.571289,947.551331 
	C390.397217,943.821289 389.223938,940.075623 388.364014,936.266357 
	C387.529175,932.568420 388.892944,929.459900 392.666565,928.519043 
	C396.434448,927.579590 399.120361,929.669128 400.233643,933.291931 
	C402.705383,941.335388 404.931915,949.453979 407.392120,957.501160 
	C410.697601,968.313049 414.119293,979.089539 417.528503,989.869446 
	C417.762817,990.610291 418.308990,991.252563 419.340424,993.021851 
	C422.088043,988.199280 424.559143,984.175598 426.725616,979.994019 
	C431.181671,971.393677 435.264740,962.594299 439.901978,954.095459 
	C443.533661,947.439453 448.734467,947.263000 452.522949,953.788879 
	C457.609741,962.551086 462.075256,971.674011 466.900452,981.011719 
z"/>
<path fill="#114B6F" opacity="1.000000" stroke="none" 
	d="
M589.987488,927.645752 
	C593.816833,927.654541 597.155823,927.534302 600.479858,927.704895 
	C604.401184,927.906128 608.157104,929.250977 607.996826,933.793152 
	C607.844849,938.101990 604.196411,939.816223 600.271545,939.947693 
	C593.779846,940.165100 587.276489,940.045227 580.778015,940.040100 
	C573.779724,940.034607 566.778809,940.100830 559.784302,939.926270 
	C556.748169,939.850464 555.606873,940.968567 555.667053,943.984192 
	C555.790100,950.146729 555.795166,956.316406 555.634033,962.477600 
	C555.557800,965.395020 556.809509,966.259460 559.504089,966.188232 
	C566.498352,966.003418 573.496399,965.888916 580.492676,965.900146 
	C582.446533,965.903320 584.949036,965.798035 586.222351,966.886292 
	C588.062866,968.459412 589.867554,971.023254 590.002930,973.266235 
	C590.077209,974.496948 586.777161,976.951904 584.858276,977.105896 
	C576.577820,977.770630 568.245972,977.931763 559.931458,977.969604 
	C556.708679,977.984314 555.428284,978.959900 555.527100,982.258118 
	C555.701721,988.084839 555.687805,993.923767 555.529602,999.751465 
	C555.428955,1003.457642 557.007507,1004.722595 560.618286,1004.681213 
	C573.280518,1004.536072 585.945312,1004.568787 598.608765,1004.610535 
	C600.406799,1004.616455 602.596375,1004.492554 603.900818,1005.419312 
	C605.516663,1006.567444 607.358276,1008.763855 607.331543,1010.479858 
	C607.303955,1012.252014 605.465332,1014.425598 603.829285,1015.606750 
	C602.526367,1016.547546 600.337097,1016.474854 598.539612,1016.483093 
	C582.543762,1016.556824 566.547302,1016.590332 550.551331,1016.541565 
	C544.916931,1016.524353 543.785645,1015.238647 543.767944,1009.346863 
	C543.691833,984.019470 543.702515,958.691650 543.514343,933.365173 
	C543.481445,928.933411 545.509399,927.562805 549.499756,927.583008 
	C562.829712,927.650513 576.160217,927.631348 589.987488,927.645752 
z"/>
<path fill="#124C72" opacity="1.000000" stroke="none" 
	d="
M189.470734,970.237549 
	C194.715393,958.355957 199.814545,946.825073 205.086502,935.373779 
	C206.090347,933.193359 207.529022,931.084778 209.204285,929.370300 
	C212.088272,926.418762 216.243546,927.219116 218.088196,931.142395 
	C222.854248,941.278992 227.460312,951.491943 232.034225,961.717346 
	C238.840683,976.933899 245.473373,992.228943 252.388931,1007.395386 
	C254.076508,1011.096497 253.376419,1014.158813 250.194199,1015.726318 
	C246.479996,1017.555969 243.487518,1015.151672 241.803940,1011.823303 
	C238.988831,1006.257935 236.252441,1000.624756 233.966675,994.829346 
	C232.409393,990.880859 230.249847,989.228760 225.867371,989.393555 
	C216.880600,989.731445 207.871704,989.603821 198.874649,989.475830 
	C195.879181,989.433228 194.094971,990.142822 192.771057,993.197693 
	C189.912216,999.794250 186.658478,1006.240967 183.193970,1012.544312 
	C181.612640,1015.421448 179.373352,1018.027649 175.260483,1015.563171 
	C171.395508,1013.247192 171.210159,1009.747864 172.671722,1006.468933 
	C178.039230,994.427185 183.783066,982.553162 189.470734,970.237549 
M213.311554,949.516418 
	C212.674149,949.920654 211.715851,950.175354 211.447403,950.751587 
	C207.279877,959.695618 203.201691,968.681335 198.674011,978.596558 
	C207.334503,978.596558 214.910309,978.725891 222.477692,978.529785 
	C225.309845,978.456421 226.643433,977.064453 225.081635,973.891418 
	C221.194687,965.994568 217.545395,957.980713 213.311554,949.516418 
z"/>
<path fill="#07476B" opacity="1.000000" stroke="none" 
	d="
M377.769012,693.766724 
	C364.151001,709.373901 344.528290,706.935852 334.280518,694.148010 
	C326.967102,685.021912 325.789276,674.469360 330.611481,664.094116 
	C335.259705,654.093140 345.960876,647.604919 357.453094,648.508423 
	C368.761780,649.397522 377.045441,655.230042 381.495636,665.382202 
	C385.755615,675.100403 383.977203,684.725220 377.769012,693.766724 
z"/>
<path fill="#08476B" opacity="1.000000" stroke="none" 
	d="
M503.247559,191.728073 
	C513.325134,198.359116 518.534485,211.305084 515.309387,221.550781 
	C510.845459,235.732071 499.176849,242.488403 488.940125,242.625870 
	C465.689728,242.938126 453.984497,219.765717 463.402344,201.343674 
	C470.077545,188.286407 488.514771,181.958725 503.247559,191.728073 
z"/>
<path fill="#124E73" opacity="1.000000" stroke="none" 
	d="
M291.708374,930.591858 
	C295.854889,926.995300 299.002502,927.207520 302.252167,931.646851 
	C306.031219,936.809448 309.318726,942.329529 312.898926,947.640991 
	C314.797516,950.457825 316.864136,953.161377 319.530823,956.851257 
	C323.439148,951.289307 326.943420,946.296265 330.454346,941.307861 
	C332.808960,937.962280 335.142273,934.601135 337.542023,931.288086 
	C339.633179,928.401123 342.128082,926.286255 345.839905,928.568481 
	C349.200592,930.634705 350.144775,933.534607 347.875488,936.999390 
	C342.536713,945.151123 337.251038,953.341675 331.714172,961.357910 
	C328.609406,965.853027 327.682434,969.638672 331.420746,974.607788 
	C338.413391,983.902771 344.682373,993.742554 351.236359,1003.366638 
	C352.330017,1004.972656 354.154602,1006.615784 354.192169,1008.274536 
	C354.242249,1010.486694 353.451080,1013.359375 351.928131,1014.757996 
	C350.760193,1015.830444 347.320709,1015.898254 345.919312,1014.928162 
	C343.349274,1013.149048 341.285980,1010.449768 339.456421,1007.824036 
	C333.672852,999.524475 327.977753,991.157043 322.498688,982.654724 
	C320.458923,979.489502 319.533112,979.621399 317.438721,982.674866 
	C310.306488,993.072937 302.841827,1003.242493 295.558411,1013.537781 
	C293.483795,1016.470215 290.782837,1017.368835 287.935455,1015.315674 
	C285.009705,1013.205994 284.053040,1010.320801 286.405579,1006.844055 
	C294.186554,995.344421 301.756836,983.701477 309.613708,972.254700 
	C311.738159,969.159668 311.614594,966.990173 309.422638,963.886230 
	C303.362885,955.305481 297.623383,946.485718 292.114197,937.540527 
	C291.079529,935.860596 291.695984,933.163757 291.708374,930.591858 
z"/>
<path fill="#134A6C" opacity="1.000000" stroke="none" 
	d="
M746.900024,985.982544 
	C746.863708,969.339905 746.776978,953.194214 746.865051,937.049438 
	C746.876099,935.030884 747.207642,932.410278 748.470398,931.153748 
	C750.082520,929.549561 752.998413,928.004700 754.966003,928.392761 
	C756.631165,928.721313 758.690491,931.730103 758.919861,933.741516 
	C759.500854,938.837769 759.163635,944.040039 759.172424,949.199890 
	C759.200500,965.678162 759.333557,982.157532 759.165955,998.633911 
	C759.119812,1003.167725 760.630859,1004.800537 765.229065,1004.705566 
	C777.874146,1004.444397 790.527161,1004.550293 803.177063,1004.550110 
	C806.794250,1004.550049 810.364258,1004.936401 811.108948,1009.447327 
	C811.721802,1013.159790 808.222107,1016.368530 803.395081,1016.434204 
	C793.742554,1016.565613 784.087646,1016.542908 774.433716,1016.543518 
	C768.108887,1016.543884 761.783691,1016.498962 755.459229,1016.427246 
	C749.759521,1016.362549 747.332031,1014.022827 747.221680,1008.442688 
	C747.076904,1001.122437 747.005859,993.800720 746.900024,985.982544 
z"/>
<path fill="#124C6F" opacity="1.000000" stroke="none" 
	d="
M658.428162,962.000000 
	C658.398987,974.493958 658.566101,986.492981 658.252991,998.479431 
	C658.124390,1003.402100 659.937500,1004.781799 664.639038,1004.687012 
	C677.127502,1004.435181 689.624695,1004.563721 702.117981,1004.627014 
	C707.675232,1004.655212 709.912048,1006.618958 709.615784,1010.708313 
	C709.255737,1015.677246 705.758301,1016.410583 701.878601,1016.459961 
	C693.050781,1016.572327 684.221436,1016.587463 675.392639,1016.601501 
	C668.396484,1016.612610 661.399719,1016.610168 654.404236,1016.526489 
	C648.405029,1016.454773 646.470825,1014.455078 646.462280,1008.484680 
	C646.432617,987.661804 646.434814,966.838867 646.375916,946.016113 
	C646.365540,942.357300 645.950073,938.695618 646.028076,935.041748 
	C646.110901,931.164917 647.991821,928.279358 652.047668,927.786987 
	C655.680603,927.346008 658.402344,930.556580 658.431458,935.013123 
	C658.489014,943.841675 658.437500,952.671021 658.428162,962.000000 
z"/>
<path fill="#FDFDFE" opacity="1.000000" stroke="none" 
	d="
M167.898926,528.858398 
	C183.254135,520.047241 198.272858,511.398407 213.300079,502.764374 
	C225.042068,496.017883 236.808319,489.313507 248.538788,482.547058 
	C261.546356,475.043915 274.524719,467.490234 287.517181,459.960999 
	C302.889008,451.052887 318.249908,442.125732 333.638428,433.246490 
	C350.718323,423.391327 367.824127,413.581055 384.918671,403.751312 
	C400.880432,394.572906 416.836243,385.384186 432.805634,376.219086 
	C447.523682,367.772217 462.274841,359.382965 476.977783,350.909973 
	C496.419067,339.706299 515.801819,328.400879 535.259766,317.226257 
	C547.472351,310.212616 559.826904,303.445740 572.028015,296.412567 
	C589.740295,286.202454 607.367188,275.844208 625.038696,265.563324 
	C640.539795,256.545135 655.990479,247.437836 671.585693,238.585205 
	C679.358093,234.173187 687.095032,229.432312 695.392822,226.269760 
	C711.008240,220.318253 727.136414,220.736679 741.756958,228.796768 
	C758.398254,237.970932 768.036560,252.356781 769.447327,272.084717 
	C770.853394,291.748138 764.270081,307.729034 749.008545,319.696899 
	C741.776733,325.368042 733.297485,329.479736 725.267883,334.097107 
	C689.896545,354.437012 654.454346,374.653900 619.093018,395.011261 
	C584.871826,414.712311 550.717773,434.530029 516.534912,454.297546 
	C482.944275,473.722687 449.382599,493.198059 415.756256,512.561157 
	C381.883759,532.066040 347.924469,551.420288 314.045349,570.913696 
	C279.188812,590.969421 244.387604,611.121338 209.553299,631.215759 
	C192.053299,641.310791 174.492172,651.300598 157.037201,661.472656 
	C145.433884,668.234619 132.797256,671.283875 119.873970,668.475098 
	C100.930931,664.358093 86.548531,653.548401 78.601624,635.191101 
	C67.706650,610.023926 78.911720,580.271729 102.715904,566.652710 
	C124.407784,554.242188 145.955093,541.578979 167.898926,528.858398 
z"/>
<path fill="#E1E9ED" opacity="1.000000" stroke="none" 
	d="
M213.556122,949.765137 
	C217.545395,957.980713 221.194687,965.994568 225.081635,973.891418 
	C226.643433,977.064453 225.309845,978.456421 222.477692,978.529785 
	C214.910309,978.725891 207.334503,978.596558 198.674011,978.596558 
	C203.201691,968.681335 207.279877,959.695618 211.447403,950.751587 
	C211.715851,950.175354 212.674149,949.920654 213.556122,949.765137 
z"/>
</svg>